<?xml version="1.0" encoding="iso-8859-1"?>
<!-- Generator: Adobe Illustrator 18.0.0, SVG Export Plug-In . SVG Version: 6.00 Build 0)  -->
<!DOCTYPE svg PUBLIC "-//W3C//DTD SVG 1.1//EN" "http://www.w3.org/Graphics/SVG/1.1/DTD/svg11.dtd">
<svg version="1.1" id="Capa_1" xmlns="http://www.w3.org/2000/svg" xmlns:xlink="http://www.w3.org/1999/xlink" x="0px" y="0px"
	 viewBox="0 0 426.767 426.767" style="enable-background:new 0 0 426.767 426.767;" xml:space="preserve">
<path d="M420.267,114.566h-30.831V82.567c0-3.59-2.91-6.5-6.5-6.5h-15.325v-11.5c0-3.59-2.91-6.5-6.5-6.5h-43.649
	c-3.59,0-6.5,2.91-6.5,6.5v49.999H118.938V64.567c0-3.59-2.91-6.5-6.5-6.5H68.788c-3.59,0-6.5,2.91-6.5,6.5v11.5H46.963
	c-3.59,0-6.5,2.91-6.5,6.5v31.999H6.5c-3.59,0-6.5,2.91-6.5,6.5s2.91,6.5,6.5,6.5h33.963v32.001c0,3.59,2.91,6.5,6.5,6.5h15.325
	v11.5c0,3.59,2.91,6.5,6.5,6.5h43.649c3.59,0,6.5-2.91,6.5-6.5v-50.001h13.514V362.2c0,3.59,2.91,6.5,6.5,6.5s6.5-2.91,6.5-6.5
	V127.566h139V362.2c0,3.59,2.91,6.5,6.5,6.5s6.5-2.91,6.5-6.5V127.566h13.511v50.001c0,3.59,2.91,6.5,6.5,6.5h43.649
	c3.59,0,6.5-2.91,6.5-6.5v-11.5h15.325c3.59,0,6.5-2.91,6.5-6.5v-32.001h30.831c3.59,0,6.5-2.91,6.5-6.5
	S423.857,114.566,420.267,114.566z M53.463,153.067v-64h8.825v64H53.463z M75.288,71.067h8.825v100h-8.825V71.067z M105.938,171.067
	h-8.825v-100h8.825V171.067z M323.962,71.067h8.825v100h-8.825V71.067z M354.612,171.067h-8.825v-100h8.825V171.067z
	 M367.612,153.067v-64h8.825v64H367.612z"/>
<g>
</g>
<g>
</g>
<g>
</g>
<g>
</g>
<g>
</g>
<g>
</g>
<g>
</g>
<g>
</g>
<g>
</g>
<g>
</g>
<g>
</g>
<g>
</g>
<g>
</g>
<g>
</g>
<g>
</g>
</svg>
